<?xml version="1.0" encoding="UTF-8"?>
<svg width="202px" height="32px" viewBox="0 0 202 32" version="1.1" xmlns="http://www.w3.org/2000/svg" xmlns:xlink="http://www.w3.org/1999/xlink">
    <!-- Generator: Sketch 48.2 (47327) - http://www.bohemiancoding.com/sketch -->
    <title>Group</title>
    <desc>Created with Sketch.</desc>
    <defs>
        <polygon id="path-1" points="17.2795698 0.189582406 34.5591024 0.189582406 34.5591024 25.1931039 3.71791146e-05 25.1931039 3.71791146e-05 0.189582406"></polygon>
        <polygon id="path-3" points="30.0976086 0.233643455 30.0976086 8.30962915 0.0959592948 8.30962915 0.0959592948 0.233643455 30.0976086 0.233643455"></polygon>
        <polygon id="path-5" points="33.8155201 0.00590455607 33.8155201 9.36671966 17.0929864 9.36671966 0.370452698 9.36671966 0.370452698 0.00590455607"></polygon>
        <polygon id="path-7" points="20.2256175 24.7389999 0 24.7389999 0 0.314702233 20.2256175 0.314702233"></polygon>
        <polygon id="path-9" points="0.0501981549 25.1082387 17.3622403 25.1082387 17.3622403 0.078721713 0.0501981549 0.078721713 0.0501981549 25.1082387"></polygon>
        <polygon id="path-11" points="0.286873159 25.1082387 21.9010831 25.1082387 21.9010831 0.078721713 0.286873159 0.078721713 0.286873159 25.1082387"></polygon>
        <polygon id="path-13" points="0.355849142 25.1082387 21.9700591 25.1082387 21.9700591 12.5934802 21.9700591 0.078721713 0.355849142 0.078721713"></polygon>
    </defs>
    <g id="Logo" stroke="none" stroke-width="1" fill="none" fill-rule="evenodd">
        <g id="Group">
            <g id="Page-1">
                <polygon id="Fill-1" fill="#FFFFFF" points="0 31.5711281 34.5591024 31.5711281 34.5591024 9.61703588 0 9.61703588"></polygon>
                <g id="Group-15" transform="translate(0.000000, 0.185124)">
                    <g id="Group-4">
                        <mask id="mask-2" fill="white">
                            <use xlink:href="#path-1"></use>
                        </mask>
                        <g id="Clip-3"></g>
                        <path d="M34.5591396,1.65416269 L34.5591396,15.5659894 C30.5943588,14.2272978 25.8454705,13.0718193 20.4548707,13.6701653 C12.6424233,14.5363996 8.15601955,18.2268871 4.08602187,21.9829417 C2.71374075,23.0773492 1.3890489,24.1758781 3.71791146e-05,25.1931039 L3.71791146e-05,1.65416269 C3.71791146e-05,1.28773662 0.133510201,0.950160042 0.359559217,0.690139905 C0.625761678,0.384784844 1.01800134,0.189582406 1.45374056,0.189582406 L33.1054362,0.189582406 C33.5411754,0.189582406 33.9330433,0.384784844 34.1996175,0.690139905 C34.4256666,0.950160042 34.5591396,1.28773662 34.5591396,1.65416269" id="Fill-2" fill="#2B67BF" mask="url(#mask-2)"></path>
                    </g>
                    <polygon id="Fill-5" fill="#FFFFFF" points="6.6210798 3.0456451 7.57174976 5.99541245 10.6498087 5.99541245 8.15992336 7.81967477 9.11096511 10.7690675 6.6210798 8.94555448 4.13045092 10.7690675 5.08223625 7.81967477 2.59086378 5.99541245 5.66892268 5.99541245"></polygon>
                    <path d="M18.1313619,31.4721781 L22.3504478,31.4721781 C20.5784912,29.868221 18.5314092,28.4860678 16.2077145,27.8663657 C13.9364424,27.2601516 11.5298383,27.5070583 9.27009172,28.049204 C7.59480081,28.4512236 5.96375306,29.040203 4.39814054,29.7629391 C3.72594215,30.0716661 3.05708988,30.3991267 2.42169881,30.7775421 C2.42169881,30.7775421 13.6029457,27.1930859 18.1313619,31.4721781" id="Fill-7" fill="#D82026"></path>
                    <g id="Group-11" transform="translate(4.461494, 16.110758)">
                        <mask id="mask-4" fill="white">
                            <use xlink:href="#path-3"></use>
                        </mask>
                        <g id="Clip-10"></g>
                        <path d="M30.0976458,4.34563339 L30.0976458,8.2369434 C26.0603658,6.1987452 22.3959922,3.30742618 17.8452686,2.50750832 C13.5566577,1.75330005 9.07992055,3.02455125 5.31702236,5.08747758 C3.52684799,6.07135782 1.82181379,7.2178443 0.0959592948,8.30962915 C0.0959592948,8.17362438 7.27227199,0.233643455 17.1161862,0.233643455 C24.9680434,0.233643455 29.4042553,4.34563339 30.0976458,4.34563339" id="Fill-9" fill="#D82026" mask="url(#mask-4)"></path>
                    </g>
                    <g id="Group-14" transform="translate(0.743582, 22.105458)">
                        <mask id="mask-6" fill="white">
                            <use xlink:href="#path-5"></use>
                        </mask>
                        <g id="Clip-13"></g>
                        <path d="M16.8017624,2.30983307 C11.7439156,2.30983307 4.76502404,5.35326762 0.370452698,7.55444674 C0.370452698,7.46340223 0.692795621,7.27157181 0.75079504,7.22661155 C1.09953514,6.95797403 1.4579418,6.70282459 1.81820742,6.45217117 C3.02950297,5.61441176 4.28281093,4.83809804 5.56437501,4.11386327 C8.88446994,2.24089401 12.5336,0.572868574 16.3448311,0.104157922 C18.2852091,-0.133756757 20.2125744,0.062569687 22.0707865,0.669533121 C23.9215628,1.27387387 25.6529942,2.21803922 27.2539269,3.3225628 C29.5995572,4.94000795 31.6719211,6.9115151 33.5825558,9.02464706 C33.6602601,9.10969687 33.7372209,9.19587069 33.8156688,9.28017117 L33.8156688,9.36671966 L28.8429622,9.36671966 C28.8429622,9.36671966 23.6081429,2.31507843 16.8017624,2.30983307 C11.7439156,2.30983307 23.6081429,2.31507843 16.8017624,2.30983307" id="Fill-12" fill="#D82026" mask="url(#mask-6)"></path>
                    </g>
                </g>
            </g>
            <g id="Page-1" transform="translate(47.315315, 1.819820)">
                <g id="Group-3" transform="translate(0.000000, 0.659867)">
                    <mask id="mask-8" fill="white">
                        <use xlink:href="#path-7"></use>
                    </mask>
                    <g id="Clip-2"></g>
                    <path d="M20.2256175,14.949113 C20.2256175,16.3618207 20.010695,17.6630182 19.5819656,18.8512287 C19.1524925,20.0405469 18.51479,21.0718308 17.6677426,21.9465576 C16.8206952,22.8212843 15.7646748,23.505853 14.5000531,23.9987868 C13.2350596,24.4917206 11.7781976,24.7391106 10.1298389,24.7391106 C8.45805444,24.7391106 6.99003729,24.4917206 5.72541563,23.9987868 C4.46042212,23.505853 3.40477352,22.8212843 2.55772613,21.9465576 C1.71105059,21.0718308 1.07260443,20.0405469 0.643503162,18.8512287 C0.214401897,17.6630182 -0.000148735284,16.3618207 -0.000148735284,14.949113 L-0.000148735284,0.314702233 L5.28515922,0.314702233 L5.28515922,14.7471394 C5.28515922,15.4874632 5.4037756,16.1720319 5.64063652,16.7993686 C5.87786928,17.4274438 6.2110363,17.9717018 6.64013756,18.4310349 C7.06886699,18.8911065 7.5831192,19.2496373 8.18177867,19.5077353 C8.77969447,19.7658332 9.42929578,19.8946975 10.1298389,19.8946975 C10.8292665,19.8946975 11.4732903,19.7658332 12.0607946,19.5077353 C12.6479271,19.2496373 13.1558581,18.8911065 13.5853312,18.4310349 C14.0140606,17.9717018 14.3475994,17.4274438 14.5848322,16.7993686 C14.822065,16.1720319 14.9406813,15.4874632 14.9406813,14.7471394 L14.9406813,0.314702233 L20.2256175,0.314702233 L20.2256175,14.949113 Z" id="Fill-1" fill="#D82026" mask="url(#mask-8)"></path>
                </g>
                <g id="Group-6" transform="translate(22.682129, 0.290628)">
                    <mask id="mask-10" fill="white">
                        <use xlink:href="#path-9"></use>
                    </mask>
                    <g id="Clip-5"></g>
                    <path d="M13.7033526,6.50421538 C13.2742513,5.9658652 12.6923246,5.56819501 11.9586878,5.31009709 C11.2243074,5.05199916 10.5300855,4.92313482 9.8752785,4.92313482 C9.49079782,4.92313482 9.09590567,4.96818196 8.68948653,5.05753775 C8.28269556,5.14726278 7.89858671,5.28794276 7.53753183,5.47810074 C7.17610512,5.66862797 6.88235295,5.92118731 6.65664718,6.23504029 C6.43056956,6.54926251 6.31790259,6.93031696 6.31790259,7.37894211 C6.31790259,8.09674234 6.58897263,8.64616968 7.1311127,9.02722413 C7.67288093,9.40901705 8.35594768,9.73357796 9.18068477,10.0031223 C10.0046782,10.2719281 10.8915123,10.5414725 11.8400715,10.8102783 C12.7886307,11.0794534 13.6747211,11.4612463 14.4994582,11.9541801 C15.3238234,12.4478524 16.007262,13.1095283 16.5494021,13.9392079 C17.0911703,14.7692568 17.3622403,15.8791886 17.3622403,17.2693727 C17.3622403,18.5930938 17.1134806,19.7480728 16.6170766,20.7346789 C16.119929,21.7220234 15.4480174,22.5402566 14.6013418,23.1904862 C13.7542944,23.8410849 12.771898,24.3233108 11.6537805,24.6367946 C10.5356631,24.9510168 9.35544872,25.1083125 8.11350918,25.1083125 C6.55513535,25.1083125 5.10942849,24.8727382 3.77713228,24.4015895 C2.44409239,23.9304407 1.20215285,23.1683318 0.0501981549,22.1137858 L3.81096955,18.0096965 C4.35310962,18.7274967 5.03580453,19.2824627 5.86054162,19.6749635 C6.68490688,20.0674644 7.53753183,20.2638994 8.41841649,20.2638994 C8.84714592,20.2638994 9.2821966,20.2133137 9.72245301,20.1121423 C10.1630813,20.0113401 10.5579734,19.8599522 10.908245,19.6579785 C11.2581447,19.4563741 11.5403699,19.1986455 11.7552924,18.884054 C11.969843,18.5705703 12.0773042,18.200593 12.0773042,17.7741222 C12.0773042,17.0566912 11.8002848,16.4906481 11.2473614,16.0752544 C10.6936943,15.6605992 9.99910062,15.3072377 9.16395205,15.0155391 C8.32768798,14.7245789 7.42412119,14.4328802 6.45325169,14.1408123 C5.48201035,13.8498521 4.57844356,13.4569821 3.74292316,12.9633098 C2.90740276,12.470376 2.21280903,11.8197772 1.65951382,11.0122519 C1.10584676,10.2047267 0.829570989,9.13984196 0.829570989,7.81612085 C0.829570989,6.53781611 1.08353647,5.4168071 1.59183927,4.45198611 C2.09977023,3.48790359 2.77763124,2.68074756 3.62467862,2.02977955 C4.47135417,1.37955002 5.44817308,0.891785559 6.55513535,0.566486173 C7.66135395,0.241556026 8.8021535,0.078721713 9.97679032,0.078721713 C11.3321405,0.078721713 12.6417546,0.269248936 13.9067481,0.650303382 C15.1713698,1.03209631 16.3121693,1.67124867 17.3284031,2.56812973 L13.7033526,6.50421538 Z" id="Fill-4" fill="#D82026" mask="url(#mask-10)"></path>
                </g>
                <path d="M48.8491631,11.0674162 L52.3723299,11.0674162 C52.8464236,11.0674162 53.3041564,11.0227383 53.7447847,10.9326441 C54.1850411,10.8436575 54.5803051,10.6919004 54.9302048,10.4784803 C55.2801045,10.2657988 55.5623297,9.97410012 55.7772522,9.6037536 C55.9918028,9.23377632 56.0992641,8.76853542 56.0992641,8.20766168 C56.0992641,7.60211004 55.9579655,7.11434558 55.6757404,6.7443683 C55.3927715,6.37439102 55.0317166,6.08860018 54.5918321,5.88662656 C54.150832,5.68465293 53.6600056,5.55578859 53.1178655,5.49966429 C52.5757254,5.44390923 52.0558956,5.41547784 51.5598635,5.41547784 L48.8491631,5.41547784 L48.8491631,11.0674162 Z M43.564227,0.974642747 L52.4742136,0.974642747 C53.7157813,0.974642747 54.89079,1.08726058 55.9977522,1.3110193 C57.1039708,1.53588573 58.0692628,1.92247876 58.8939998,2.4719061 C59.7183651,3.02170268 60.373544,3.76165724 60.8591647,4.69213903 C61.3444135,5.62299005 61.5875957,6.79495401 61.5875957,8.20766168 C61.5875957,9.59858425 61.361518,10.7646404 60.9101065,11.7061993 C60.4575794,12.6484968 59.8366096,13.3998977 59.0464535,13.9604022 C58.2555537,14.521276 57.3188933,14.9193154 56.2346132,15.1545205 C55.1507048,15.3900949 53.976068,15.5078821 52.7114464,15.5078821 L48.8491631,15.5078821 L48.8491631,24.7931303 L43.564227,24.7931303 L43.564227,0.974642747 Z" id="Fill-7" fill="#D82026"></path>
                <path d="M72.2046913,7.9051074 L69.2909673,15.30613 L75.1522526,15.30613 L72.2046913,7.9051074 Z M70.171852,0.974495052 L74.542438,0.974495052 L84.9777048,24.7929826 L79.014164,24.7929826 L76.9478592,19.7469651 L67.6310817,19.7469651 L65.6320796,24.7929826 L59.8050034,24.7929826 L70.171852,0.974495052 Z" id="Fill-9" fill="#D82026"></path>
                <path d="M98.3876771,7.9051074 L95.4739531,15.30613 L101.335238,15.30613 L98.3876771,7.9051074 Z M96.3548377,0.974495052 L100.725052,0.974495052 L111.159947,24.7929826 L105.19715,24.7929826 L103.130473,19.7469651 L93.8140674,19.7469651 L91.8146935,24.7929826 L85.9846426,24.7929826 L96.3548377,0.974495052 Z" id="Fill-11" fill="#D82026"></path>
                <g id="Group-15" transform="translate(110.435941, 0.290628)">
                    <mask id="mask-12" fill="white">
                        <use xlink:href="#path-11"></use>
                    </mask>
                    <g id="Clip-14"></g>
                    <path d="M17.2597989,6.87419266 C16.740341,6.24685593 16.1022667,5.76389158 15.3459478,5.42751503 C14.5885134,5.09113848 13.71395,4.92313482 12.7200265,4.92313482 C11.7261031,4.92313482 10.8061754,5.11366204 9.95912801,5.49508573 C9.11208063,5.87650941 8.37770021,6.40895177 7.75673044,7.09315127 C7.13538884,7.77735078 6.65014001,8.58967615 6.30024028,9.53197357 C5.94959687,10.4739018 5.77483292,11.4948471 5.77483292,12.5933325 C5.77483292,13.71508 5.94959687,14.7411946 6.30024028,15.6716764 C6.65014001,16.6025274 7.1301831,17.4096835 7.73999773,18.093883 C8.34981235,18.7780825 9.06671637,19.3108941 9.89145346,19.6919485 C10.7154469,20.0733722 11.6022809,20.2638994 12.5508402,20.2638994 C13.6351203,20.2638994 14.5944628,20.0397715 15.4303551,19.5907771 C16.2658755,19.1425212 16.9552634,18.5140767 17.4970317,17.7069207 L21.9010831,20.9702532 C20.8848494,22.3829609 19.5975456,23.4260605 18.0391718,24.0988136 C16.4807979,24.771936 14.876688,25.1083125 13.2283293,25.1083125 C11.3531494,25.1083125 9.62558916,24.8166139 8.04490504,24.2335858 C6.46384908,23.6505577 5.09734375,22.8153395 3.94538905,21.7271928 C2.7938062,20.6394153 1.89618882,19.321602 1.25216509,17.7744914 C0.608513189,16.2266423 0.286873159,14.4997124 0.286873159,12.5933325 C0.286873159,10.6873218 0.608513189,8.96002267 1.25216509,7.41254284 C1.89618882,5.86506301 2.7938062,4.54761896 3.94538905,3.4594722 C5.09734375,2.37206392 6.46384908,1.53684575 8.04490504,0.95344844 C9.62558916,0.370420368 11.3531494,0.078721713 13.2283293,0.078721713 C13.9058185,0.078721713 14.6115674,0.140753832 15.3459478,0.263710354 C16.0795845,0.387405353 16.8028098,0.583101919 17.5141362,0.852277007 C18.2254627,1.1214521 18.9085294,1.48072145 19.5637083,1.92860812 C20.2185154,2.37760251 20.8056478,2.92739909 21.3254776,3.57725938 L17.2597989,6.87419266 Z" id="Fill-13" fill="#D82026" mask="url(#mask-12)"></path>
                </g>
                <g id="Group-18" transform="translate(132.374394, 0.290628)">
                    <mask id="mask-14" fill="white">
                        <use xlink:href="#path-13"></use>
                    </mask>
                    <g id="Clip-17"></g>
                    <path d="M17.3287749,6.87419266 C16.809317,6.24685593 16.1712426,5.76389158 15.4149238,5.42751503 C14.6574894,5.09113848 13.782926,4.92313482 12.7890025,4.92313482 C11.795079,4.92313482 10.8751514,5.11366204 10.028104,5.49508573 C9.18105661,5.87650941 8.4466762,6.40895177 7.82570643,7.09315127 C7.20436482,7.77735078 6.71911599,8.58967615 6.36921626,9.53197357 C6.01857285,10.4739018 5.84380891,11.4948471 5.84380891,12.5933325 C5.84380891,13.71508 6.01857285,14.7411946 6.36921626,15.6716764 C6.71911599,16.6025274 7.19915909,17.4096835 7.80897371,18.093883 C8.41878833,18.7780825 9.13569235,19.3108941 9.96042944,19.6919485 C10.7844229,20.0733722 11.6712569,20.2638994 12.6198161,20.2638994 C13.7040963,20.2638994 14.6634388,20.0397715 15.499331,19.5907771 C16.3348514,19.1425212 17.0242394,18.5140767 17.5660077,17.7069207 L21.9700591,20.9702532 C20.9538254,22.3829609 19.6665216,23.4260605 18.1081477,24.0988136 C16.5497739,24.771936 14.945664,25.1083125 13.2973053,25.1083125 C11.4221253,25.1083125 9.69456514,24.8166139 8.11388102,24.2335858 C6.53282506,23.6505577 5.16631973,22.8153395 4.01436504,21.7271928 C2.86278218,20.6394153 1.9651648,19.321602 1.32114107,17.7744914 C0.677489172,16.2266423 0.355849142,14.4997124 0.355849142,12.5933325 C0.355849142,10.6873218 0.677489172,8.96002267 1.32114107,7.41254284 C1.9651648,5.86506301 2.86278218,4.54761896 4.01436504,3.4594722 C5.16631973,2.37206392 6.53282506,1.53684575 8.11388102,0.95344844 C9.69456514,0.370420368 11.4221253,0.078721713 13.2973053,0.078721713 C13.9747945,0.078721713 14.6805434,0.140753832 15.4149238,0.263710354 C16.1485605,0.387405353 16.8717858,0.583101919 17.5831122,0.852277007 C18.2944387,1.1214521 18.9775054,1.48072145 19.6326843,1.92860812 C20.2874913,2.37760251 20.8746238,2.92739909 21.3944536,3.57725938 L17.3287749,6.87419266 Z" id="Fill-16" fill="#D82026" mask="url(#mask-14)"></path>
                </g>
            </g>
        </g>
    </g>
</svg>